<svg width="20" height="18" viewBox="0 0 20 18" fill="none" xmlns="http://www.w3.org/2000/svg" class="_wauiIcon__store _ag3z"><path d="M19.8951 5.89L18.8451 1.52C18.6251 0.62 17.8451 0 16.9351 0H14.7251H12.7151H10.9951H8.99512H7.27512H5.25512H3.04512C2.14512 0 1.35512 0.63 1.14512 1.52L0.0951238 5.89C-0.144876 6.91 0.0751239 7.95 0.715124 8.77C0.795124 8.88 0.905124 8.96 0.995124 9.06V16C0.995124 17.1 1.89512 18 2.99512 18H16.9951C18.0951 18 18.9951 17.1 18.9951 16V9.06C19.0851 8.97 19.1951 8.88 19.2751 8.78C19.9151 7.96 20.1451 6.91 19.8951 5.89ZM5.01512 2L4.43512 6.86C4.35512 7.51 3.83512 8 3.22512 8C2.73512 8 2.42512 7.71 2.29512 7.53C2.03512 7.2 1.94512 6.77 2.04512 6.36L3.04512 2H5.01512ZM16.9051 1.99L17.9551 6.36C18.0551 6.78 17.9651 7.2 17.7051 7.53C17.5651 7.71 17.2651 8 16.7651 8C16.1551 8 15.6251 7.51 15.5551 6.86L14.9751 2L16.9051 1.99ZM13.5051 6.52C13.5551 6.91 13.4351 7.3 13.1751 7.59C12.9451 7.85 12.6251 8 12.2151 8C11.5451 8 10.9951 7.41 10.9951 6.69V2H12.9551L13.5051 6.52ZM8.99512 6.69C8.99512 7.41 8.44512 8 7.70512 8C7.36512 8 7.05512 7.85 6.81512 7.59C6.56512 7.3 6.44512 6.91 6.48512 6.52L7.03512 2H8.99512V6.69ZM15.9951 16H3.99512C3.44512 16 2.99512 15.55 2.99512 15V9.97C3.07512 9.98 3.14512 10 3.22512 10C4.09512 10 4.88512 9.64 5.46512 9.05C6.06512 9.65 6.86512 10 7.77512 10C8.64512 10 9.42512 9.64 10.0051 9.07C10.5951 9.64 11.3951 10 12.2951 10C13.1351 10 13.9351 9.65 14.5351 9.05C15.1151 9.64 15.9051 10 16.7751 10C16.8551 10 16.9251 9.98 17.0051 9.97V15C16.9951 15.55 16.5451 16 15.9951 16Z" fill="currentColor"/></svg>