<svg width="24" height="13" viewBox="0 0 24 13" fill="none" xmlns="http://www.w3.org/2000/svg" class="_wauiIcon__communities _ag3z"><path d="M7.00049 5H5.00049V3C5.00049 2.45 4.55049 2 4.00049 2C3.45049 2 3.00049 2.45 3.00049 3V5H1.00049C0.450488 5 0.000488281 5.45 0.000488281 6C0.000488281 6.55 0.450488 7 1.00049 7H3.00049V9C3.00049 9.55 3.45049 10 4.00049 10C4.55049 10 5.00049 9.55 5.00049 9V7H7.00049C7.55049 7 8.00049 6.55 8.00049 6C8.00049 5.45 7.55049 5 7.00049 5ZM18.0005 6C19.6605 6 20.9905 4.66 20.9905 3C20.9905 1.34 19.6605 0 18.0005 0C17.6805 0 17.3705 0.0499999 17.0905 0.14C17.6605 0.95 17.9905 1.93 17.9905 3C17.9905 4.07 17.6505 5.04 17.0905 5.86C17.3705 5.95 17.6805 6 18.0005 6ZM13.0005 6C14.6605 6 15.9905 4.66 15.9905 3C15.9905 1.34 14.6605 0 13.0005 0C11.3405 0 10.0005 1.34 10.0005 3C10.0005 4.66 11.3405 6 13.0005 6ZM13.0005 8C11.0005 8 7.00049 9 7.00049 11V12C7.00049 12.55 7.45049 13 8.00049 13H18.0005C18.5505 13 19.0005 12.55 19.0005 12V11C19.0005 9 15.0005 8 13.0005 8ZM19.6205 8.16C20.4505 8.89 21.0005 9.82 21.0005 11V12.5C21.0005 12.67 20.9805 12.84 20.9505 13H23.5005C23.7805 13 24.0005 12.78 24.0005 12.5V11C24.0005 9.46 21.6305 8.51 19.6205 8.16Z" fill="currentColor"/></svg>