<svg width="18" height="18" viewBox="0 0 18 18" fill="none" xmlns="http://www.w3.org/2000/svg" class="_wauiIcon__smileFace _ag3z"><path d="M8.99149 0C4.02349 0 0.000488281 4.032 0.000488281 9C0.000488281 13.968 4.02349 18 8.99149 18C13.9685 18 18.0005 13.968 18.0005 9C18.0005 4.032 13.9685 0 8.99149 0ZM5.85049 5.4C6.59749 5.4 7.20049 6.003 7.20049 6.75C7.20049 7.497 6.59749 8.1 5.85049 8.1C5.10349 8.1 4.50049 7.497 4.50049 6.75C4.50049 6.003 5.10349 5.4 5.85049 5.4ZM13.2395 11.448C12.4205 13.203 10.8365 14.4 9.00049 14.4C7.16449 14.4 5.58049 13.203 4.76149 11.448C4.61749 11.151 4.83349 10.8 5.16649 10.8H12.8345C13.1675 10.8 13.3835 11.151 13.2395 11.448ZM12.1505 8.1C11.4035 8.1 10.8005 7.497 10.8005 6.75C10.8005 6.003 11.4035 5.4 12.1505 5.4C12.8975 5.4 13.5005 6.003 13.5005 6.75C13.5005 7.497 12.8975 8.1 12.1505 8.1Z" fill="currentColor"/></svg>