<svg fill="currentColor" width="16" height="17" viewBox="0 0 16 17" xmlns="http://www.w3.org/2000/svg" class="_wauiIcon__plus _aede"><g clip-path="url(#clip0_1842_81860)"><path fill-rule="evenodd" clip-rule="evenodd" d="M16.002 8.50042C16.002 8.0862 15.6662 7.75042 15.252 7.75042L8.7514 7.75042L8.7514 1.25042C8.7514 0.836205 8.41562 0.500418 8.0014 0.500418C7.58719 0.500418 7.2514 0.836205 7.2514 1.25042L7.2514 7.75042L0.752014 7.75042C0.337801 7.75042 0.00201378 8.0862 0.00201363 8.50042C0.00201415 8.91463 0.337801 9.25042 0.752014 9.25042L7.2514 9.25042L7.2514 15.7504C7.2514 16.1646 7.58719 16.5004 8.0014 16.5004C8.41562 16.5004 8.7514 16.1646 8.7514 15.7504L8.7514 9.25042L15.252 9.25042C15.6662 9.25042 16.002 8.91463 16.002 8.50042Z" fill="#currentColor"/></g><defs><clipPath id="clip0_1842_81860"><rect width="16" height="16" fill="white" transform="translate(0 0.5)"/></clipPath></defs></svg>